{"title":"Johan.Falk.Kodnamn.Lisa.2013.720p.BluRay.x264-KraBBa","uid":7805087,"size":5844455817,"categoryP":"video","categoryS":"hd___movies","magnet":"?xt=urn:btih:98a46f1214e0db061b7f05b2fe7522cbcf3fa237&amp;dn=Johan.Falk.Kodnamn.Lisa.2013.720p.BluRay.x264-KraBBa&amp;tr=udp%3A%2F%2Ftracker.openbittorrent.com%3A80&amp;tr=udp%3A%2F%2Fopen.demonii.com%3A1337&amp;tr=udp%3A%2F%2Ftracker.coppersurfer.tk%3A6969&amp;tr=udp%3A%2F%2Fexodus.desync.com%3A6969","seeders":1,"leechers":0,"uploader":"SWAXXON","files":61,"time":1352335423,"description":"General\nComplete name                  : KraBBa-klisa.mkv\nFormat                         : Matroska\nFormat version                 : Version 2\nFile size                      : 5.40 GiB\nDuration                       : 1h 45mn\nOverall bit rate               : 7 311 Kbps\nEncoded date                   : UTC 2012-11-07 23:11:52\nWriting application            : mkvmerge v5.8.0 ('No Sleep / Pillow') built on Sep  2 2012 15:37:04\nWriting library                : libebml v1.2.3 + libmatroska v1.3.0\n\nVideo\nID                             : 1\nFormat                         : AVC\nFormat/Info                    : Advanced Video Codec\nFormat profile                 : &lt;a class=&quot;__cf_email__&quot; href=&quot;/cdn-cgi/l/email-protection&quot; data-cfemail=&quot;5911303e3119156d7768&quot;&gt;[email&amp;#160;protected]&lt;/a&gt;&lt;script cf-hash='f9e31' type=&quot;text/javascript&quot;&gt;\n/* &lt;![CDATA[ */!function(){try{var t=&quot;currentScript&quot;in document?document.currentScript:function(){for(var t=document.getElementsByTagName(&quot;script&quot;),e=t.length;e--;)if(t[e].getAttribute(&quot;cf-hash&quot;))return t[e]}();if(t&amp;&amp;t.previousSibling){var e,r,n,i,c=t.previousSibling,a=c.getAttribute(&quot;data-cfemail&quot;);if(a){for(e=&quot;&quot;,r=parseInt(a.substr(0,2),16),n=2;a.length-n;n+=2)i=parseInt(a.substr(n,2),16)^r,e+=String.fromCharCode(i);e=document.createTextNode(e),c.parentNode.replaceChild(e,c)}}}catch(u){}}();/* ]]&gt; */&lt;/script&gt;\nFormat settings, CABAC         : Yes\nFormat settings, ReFrames      : 5 frames\nCodec ID                       : V_MPEG4/ISO/AVC\nDuration                       : 1h 45mn\nBit rate                       : 5 801 Kbps\nWidth                          : 1 280 pixels\nHeight                         : 720 pixels\nDisplay aspect ratio           : 16:9\nFrame rate mode                : Constant\nFrame rate                     : 23.976 fps\nColor space                    : YUV\nChroma subsampling             : 4:2:0\nBit depth                      : 8 bits\nScan type                      : Progressive\nBits/(Pixel*Frame)             : 0.263\nStream size                    : 4.18 GiB (77%)\nWriting library                : x264 core 128 r2216 198a7ea\nDefault                        : Yes\nForced                         : No\n\nAudio\nID                             : 2\nFormat                         : DTS\nFormat/Info                    : Digital Theater Systems\nCodec ID                       : A_DTS\nDuration                       : 1h 45mn\nBit rate mode                  : Constant\nBit rate                       : 1 510 Kbps\nChannel(s)                     : 6 channels\nChannel positions              : Front: L C R, Side: L R, LFE\nSampling rate                  : 48.0 KHz\nBit depth                      : 24 bits\nCompression mode               : Lossy\nStream size                    : 1.11 GiB (21%)\nLanguage                       : Swedish\nDefault                        : Yes\nForced                         : No\n","torrent":{"xt":"urn:btih:98a46f1214e0db061b7f05b2fe7522cbcf3fa237","amp;dn":"Johan.Falk.Kodnamn.Lisa.2013.720p.BluRay.x264-KraBBa","amp;tr":["udp%3A%2F%2Ftracker.openbittorrent.com%3A80","udp%3A%2F%2Fopen.demonii.com%3A1337","udp%3A%2F%2Ftracker.coppersurfer.tk%3A6969","udp%3A%2F%2Fexodus.desync.com%3A6969"],"infoHash":"98a46f1214e0db061b7f05b2fe7522cbcf3fa237","infoHashBuffer":{"type":"Buffer","data":[152,164,111,18,20,224,219,6,27,127,5,178,254,117,34,203,207,63,162,55]},"announce":[],"urlList":[]}}